<svg width="16" height="16" viewBox="0 0 16 16" fill="none" xmlns="http://www.w3.org/2000/svg">
<path d="M1.27307 13.3692L7.13826 7.50405L1.27307 1.63886C0.898209 1.26394 0.89821 0.656114 1.27313 0.281255C1.64799 -0.0936672 2.25588 -0.0936672 2.6308 0.281255L8.49594 6.14638L14.3611 0.281192C14.736 -0.0937307 15.3439 -0.0937307 15.7188 0.281192C16.0937 0.656115 16.0937 1.26394 15.7188 1.63886L9.85361 7.50405L15.7188 13.3692C16.0937 13.7442 16.0937 14.352 15.7188 14.7269C15.5313 14.9144 15.2856 15.0081 15.04 15.0081C14.7943 15.0081 14.5486 14.9144 14.3611 14.7269L8.49594 8.86172L2.63074 14.7269C2.44328 14.9144 2.19758 15.0081 1.95187 15.0081C1.70617 15.0081 1.46047 14.9144 1.27307 14.7269C0.898145 14.352 0.898145 13.7442 1.27307 13.3692Z" fill="#030235"/>
</svg>
