<svg width="25" height="26" viewBox="0 0 25 26" fill="none" xmlns="http://www.w3.org/2000/svg">
 <style>
    @media (prefers-color-scheme: dark) {
      path {
          fill: #ffffff;
      }
    }
  </style>
<path d="M12.5767 0.0483341C8.08626 0.410831 4.26104 3.16581 2.3128 7.03245C2.17024 7.29828 2.28904 7.58828 2.55039 7.70911H2.57415C2.81174 7.80578 3.04933 7.70911 3.16812 7.49162C5.11637 3.62498 9.08415 0.990826 13.6221 0.990826C16.9722 0.990826 20.1559 2.44082 22.3893 5.00246L23.5535 6.42829C23.6247 6.52495 23.601 6.64579 23.5297 6.71829L19.9658 10.3191C19.9421 10.3433 19.5144 10.7058 19.1818 11.0199C19.1343 11.0683 19.063 11.0683 18.9917 11.0683C18.9204 11.0441 18.8729 10.9958 18.8491 10.9233C17.9225 8.36161 15.3328 6.83912 12.6243 7.39495C10.2959 7.85411 8.51393 9.8841 8.30009 12.2766C8.13378 13.8474 8.63272 15.3699 9.65437 16.5299C10.6998 17.714 12.1728 18.3907 13.7172 18.3907C15.0714 18.3907 16.3782 17.8832 17.3998 16.9407C17.4711 16.8682 17.5899 16.8682 17.6849 16.9407L18.374 17.6174C18.3977 17.6657 18.4215 17.714 18.4215 17.7865C18.4215 17.8349 18.3977 17.8832 18.3502 17.9315C17.281 18.8499 15.5941 19.9615 13.6221 19.9615C11.365 19.9615 9.3455 18.8499 8.08626 17.134C7.94371 16.9407 7.68236 16.8924 7.46853 17.0132C7.23093 17.1582 7.15966 17.4965 7.32597 17.7382C7.49228 17.9557 7.6586 18.149 7.84867 18.3665C9.32174 19.9857 11.4363 20.9282 13.6221 20.9524C13.6459 20.9524 13.6459 20.9524 13.6697 20.9524C16.2356 20.9524 18.7779 18.8015 19.752 17.8832C19.8233 17.8107 19.847 17.7382 19.847 17.6415C19.847 17.569 19.8233 17.4724 19.752 17.424L17.8988 15.7324C17.8275 15.6599 17.7562 15.6357 17.6612 15.6357C17.5899 15.6599 17.5186 15.6841 17.4711 15.7566C16.5445 16.9649 15.0952 17.6899 13.5984 17.6415C11.1512 17.569 9.13166 15.5874 9.01287 13.0982C8.94159 11.7691 9.39301 10.5124 10.2959 9.54577C11.1987 8.55494 12.4104 8.02328 13.7172 8.02328C16.3307 8.02328 18.4452 10.1983 18.4452 12.8324C18.4452 12.9532 18.5165 13.0016 18.5403 13.0016C18.564 13.0016 18.6591 13.0499 18.7304 12.9774L20.441 11.2374L24.4088 7.22578C24.7414 6.88745 24.7652 6.37996 24.4801 6.01746L23.601 4.9058C21.1538 1.78832 17.4711 0 13.5984 0C13.2658 0 12.9331 1.90735e-06 12.5767 0.0483341ZM12.8143 2.41665C12.5292 2.44082 12.3391 2.70665 12.3867 2.97248C12.4104 3.23831 12.648 3.40747 12.8856 3.38331C13.1232 3.35914 13.3845 3.35914 13.6221 3.35914C16.2356 3.35914 18.7541 4.49497 20.536 6.45246C20.6073 6.52495 20.6073 6.66995 20.536 6.74245L19.7282 7.53995C19.7045 7.56411 19.657 7.58828 19.5857 7.58828C19.5382 7.58828 19.4906 7.56411 19.4431 7.51578C17.8513 5.75163 15.5941 4.78497 13.242 4.9058C9.29798 5.09913 6.01922 8.38577 5.75787 12.3974C5.68659 13.5816 5.8529 14.7174 6.25681 15.7807C6.35185 16.0707 6.68447 16.1916 6.94582 16.0466V16.0224C7.15966 15.9016 7.25469 15.6599 7.15966 15.4424C6.80327 14.4999 6.63696 13.4607 6.73199 12.3732C6.99334 9.0141 9.60685 6.28329 12.8856 5.92079C15.4754 5.65496 17.9225 6.81495 19.3481 8.96577L21.819 6.45246C19.8233 3.86664 16.8534 2.36832 13.6221 2.36832C13.3608 2.36832 13.0757 2.39248 12.8143 2.41665ZM10.676 2.80331C6.18553 4.15664 2.95429 8.53077 3.26316 13.6057C3.61955 19.1399 8.22882 23.514 13.6697 23.4898C16.497 23.4657 19.1343 22.3057 21.1063 20.2515C21.13 20.2032 21.1775 20.179 21.2488 20.179C21.2963 20.179 21.3439 20.2032 21.3914 20.2274L22.0804 20.9282C22.1517 21.0007 22.1517 21.1215 22.0804 21.2182C20.1084 23.2723 17.5662 24.529 14.7863 24.819C14.5487 24.8432 14.3587 25.0607 14.3587 25.3023V25.3507C14.3824 25.6165 14.62 25.8098 14.8814 25.7857C18.0651 25.4715 21.0587 23.9248 23.1971 21.4357C23.3634 21.2424 23.3396 20.9524 23.1733 20.7832L21.5102 19.0915C21.4151 18.9949 21.2726 18.9224 21.13 18.9465C21.0112 18.9465 20.8924 18.9949 20.7974 19.0915C18.9679 21.3148 16.2832 22.5473 13.4321 22.499C8.3001 22.4023 4.14225 18.0524 4.21353 12.8082C4.26104 8.53077 7.11214 4.9058 10.9611 3.74581C11.1987 3.67331 11.3413 3.45581 11.2937 3.21414V3.18998C11.27 2.94831 11.0562 2.77915 10.8186 2.77915C10.771 2.77915 10.7235 2.80331 10.676 2.80331ZM1.50499 9.03827C1.17236 10.0774 0.982284 11.1649 0.934766 12.3007C0.768452 15.8774 2.00393 19.2607 4.42736 21.8465C6.66072 24.2148 9.58309 25.6165 12.7668 25.834C13.0282 25.834 13.2658 25.6165 13.2658 25.3265V25.3023C13.242 25.0607 13.0519 24.8673 12.8143 24.8432C6.70823 24.4323 1.88513 19.2365 1.88513 12.9291C1.88513 11.6724 2.0752 10.4883 2.43159 9.35243C2.50287 9.11077 2.38407 8.84494 2.14648 8.74827H2.12272C2.0752 8.72411 2.00393 8.69994 1.95641 8.69994C1.74258 8.69994 1.5525 8.84494 1.50499 9.03827Z" fill="#030235" stroke="#EDBB5F" stroke-width="0.00163604" stroke-miterlimit="2" stroke-linejoin="round"/>
</svg>
