<svg width="12" height="20" viewBox="0 0 12 20" fill="none" xmlns="http://www.w3.org/2000/svg">
<path d="M1.02477 9.28461L1.02478 9.2846L9.29276 1.01662L9.29273 1.0166L9.29586 1.01357C9.66889 0.65331 10.2633 0.663647 10.6236 1.03668C10.975 1.40057 10.9751 1.97746 10.6236 2.34132L10.6236 2.34135L10.6205 2.34441L3.01646 9.94849L10.6205 17.5526L10.6206 17.5526C10.9872 17.9192 10.9872 18.5137 10.6206 18.8803L10.6205 18.8804C10.2538 19.247 9.65944 19.247 9.29277 18.8804L9.29276 18.8804L1.02478 10.6124L1.02476 10.6124C0.658178 10.2457 0.658159 9.65128 1.02477 9.28461Z" fill="white" stroke="white" stroke-width="0.5"/>
</svg>
